<?xml version="1.0" standalone="no"?>
<svg xmlns="http://www.w3.org/2000/svg" viewBox="0 0 187.68 29" width="187.68" height="29"><g fill="#00936f" color="#00936f" transform="translate(0, 0) scale(0.58)"><svg width="50.0" height="50.0" x="0.0" y="0.0" viewBox="0 0 50 50"><path fill="currentColor" fill-rule="evenodd" d="M24.968 0C11.178 0 0 11.178 0 24.968c0 7.13 2.993 13.555 7.784 18.104V28.647h4.083v17.576a24.911 24.911 0 0 0 5.424 2.506V15.22h4.083v34.456c1.174.17 2.373.262 3.594.262.616 0 1.225-.03 1.83-.075V34.606h4.083v14.62a24.785 24.785 0 0 0 5.424-2.014V23.783h4.083V44.6c5.81-4.572 9.549-11.663 9.549-19.63C49.937 11.178 38.757 0 24.967 0"></path></svg></g><line x1="41" y1="1" x2="41" y2="28" stroke="#1c2149" stroke-linecap="round"></line><path fill="#1c2149" fill-rule="nonzero" d="M9.26 0.91Q10.80 0.91 12 1.62Q13.20 2.33 13.87 3.56Q14.54 4.80 14.54 6.34L14.54 6.34L14.54 6.65Q14.54 8.18 13.87 9.43Q13.20 10.68 12 11.39Q10.80 12.10 9.26 12.10L9.26 12.10L5.30 12.10L5.30 17.42L0 17.42L0 0.91L9.26 0.91ZM5.30 4.82L5.30 8.23L7.49 8.23Q8.33 8.23 8.75 7.80Q9.17 7.37 9.17 6.62L9.17 6.62L9.17 6.43Q9.17 5.66 8.75 5.24Q8.33 4.82 7.49 4.82L7.49 4.82L5.30 4.82ZM21.94 3.26L17.16 3.26L17.16 0.02L21.94 0.02L21.94 3.26ZM21.94 17.42L17.16 17.42L17.16 4.75L21.94 4.75L21.94 17.42ZM31.54 4.46Q34.66 4.46 36.59 5.80Q38.52 7.13 38.52 9.86L38.52 9.86L33.89 9.86Q33.89 7.70 31.54 7.70L31.54 7.70Q29.18 7.70 29.18 10.42L29.18 10.42L29.18 11.78Q29.18 14.47 31.63 14.47L31.63 14.47Q34.08 14.47 34.08 12.26L34.08 12.26L38.52 12.26Q38.52 15.02 36.59 16.37Q34.66 17.71 31.54 17.71L31.54 17.71Q28.20 17.71 26.30 16.03Q24.41 14.35 24.41 11.09L24.41 11.09Q24.41 7.82 26.30 6.14Q28.20 4.46 31.54 4.46L31.54 4.46ZM45.36 9.60L49.42 4.75L54.98 4.75L50.30 9.86L55.10 17.42L49.68 17.42L47.02 13.08L45.36 14.69L45.36 17.42L40.58 17.42L40.58 0L45.36 0L45.36 9.60ZM76.37 17.42L71.11 17.42L71.11 11.47Q71.11 10.37 71.20 9.20Q71.28 8.04 71.38 7.25Q71.47 6.46 71.50 6.24L71.50 6.24L71.40 6.24L68.35 17.42L64.20 17.42L61.13 6.26L61.03 6.26Q61.06 6.48 61.16 7.26Q61.27 8.04 61.37 9.20Q61.46 10.37 61.46 11.47L61.46 11.47L61.46 17.42L56.59 17.42L56.59 0.91L64.08 0.91L66.58 10.44L66.67 10.44L69.14 0.91L76.37 0.91L76.37 17.42ZM85.80 4.46Q89.28 4.46 91.12 6.10Q92.95 7.73 92.95 11.09L92.95 11.09L92.95 11.90L83.45 11.90Q83.45 13.27 84.06 13.97Q84.67 14.66 85.99 14.66L85.99 14.66Q87.19 14.66 87.76 14.16Q88.32 13.66 88.32 12.82L88.32 12.82L92.95 12.82Q92.95 15.12 91.20 16.42Q89.45 17.71 86.09 17.71L86.09 17.71Q82.56 17.71 80.62 16.07Q78.67 14.42 78.67 11.09L78.67 11.09Q78.67 7.82 80.57 6.14Q82.46 4.46 85.80 4.46L85.80 4.46ZM85.99 7.51Q83.74 7.51 83.47 9.65L83.47 9.65L88.13 9.65Q88.13 8.66 87.56 8.09Q87 7.51 85.99 7.51L85.99 7.51ZM112.03 10.78Q112.03 14.16 109.90 15.94Q107.76 17.71 103.82 17.71L103.82 17.71Q99.89 17.71 97.74 15.94Q95.59 14.16 95.59 10.78L95.59 10.78L95.59 0.91L100.90 0.91L100.90 10.70Q100.90 12.10 101.64 12.92Q102.38 13.75 103.80 13.75L103.80 13.75Q105.22 13.75 105.97 12.91Q106.73 12.07 106.73 10.70L106.73 10.70L106.73 0.91L112.03 0.91L112.03 10.78ZM123.60 4.46Q126.17 4.46 127.56 6.14Q128.95 7.82 128.95 11.11L128.95 11.11Q128.95 14.38 127.56 16.04Q126.17 17.71 123.60 17.71L123.60 17.71Q121.39 17.71 120.05 16.27L120.05 16.27L120.05 22.15L115.27 22.15L115.27 4.75L119.16 4.75L119.57 6.55Q120.96 4.46 123.60 4.46L123.60 4.46ZM122.11 7.99Q121.06 7.99 120.53 8.74Q120 9.48 120 10.68L120 10.68L120 11.47Q120 12.67 120.53 13.43Q121.06 14.18 122.11 14.18L122.11 14.18Q124.18 14.18 124.18 11.71L124.18 11.71L124.18 10.44Q124.18 7.99 122.11 7.99L122.11 7.99ZM135.31 11.52L132.26 11.52L130.94 0.91L136.68 0.91L135.31 11.52ZM136.18 17.42L131.42 17.42L131.42 12.98L136.18 12.98L136.18 17.42Z" transform="translate(51, 5.788)"></path></svg>